<mxfile host="65bd71144e">
    <diagram id="9anrFySLPR2ucp8WTtXU" name="Page-1">
        <mxGraphModel dx="1781" dy="1151" grid="1" gridSize="10" guides="1" tooltips="1" connect="1" arrows="1" fold="1" page="1" pageScale="1" pageWidth="850" pageHeight="1100" math="0" shadow="0">
            <root>
                <mxCell id="0"/>
                <mxCell id="1" parent="0"/>
                <mxCell id="3" value="" style="rounded=0;whiteSpace=wrap;html=1;fillColor=#FFFFFF;" vertex="1" parent="1">
                    <mxGeometry width="850" height="230" as="geometry"/>
                </mxCell>
                <mxCell id="2" value="&lt;h1&gt;&lt;font style=&quot;font-size: 48px;&quot; color=&quot;#000000&quot;&gt;Define your goals&lt;/font&gt;&lt;/h1&gt;" style="text;html=1;strokeColor=none;fillColor=none;align=center;verticalAlign=middle;whiteSpace=wrap;rounded=0;" vertex="1" parent="1">
                    <mxGeometry x="190" y="60" width="470" height="30" as="geometry"/>
                </mxCell>
                <mxCell id="4" value="&lt;font style=&quot;font-size: 20px;&quot;&gt;Gebe hier die Tätigkeit die du gerne lernen möchtest.&amp;nbsp;&lt;span style=&quot;font-family: Arial, Helvetica, sans-serif; background-color: initial;&quot;&gt;Your information will be sent to the YouTube API and the videos will be displayed within the YouTube feed.&lt;/span&gt;&lt;br&gt;&lt;/font&gt;" style="text;html=1;strokeColor=none;fillColor=none;align=center;verticalAlign=middle;whiteSpace=wrap;rounded=0;fontSize=48;fontColor=#000000;" vertex="1" parent="1">
                    <mxGeometry x="40" y="150" width="780" height="30" as="geometry"/>
                </mxCell>
                <mxCell id="6" value="&lt;h1&gt;&lt;font color=&quot;#ffffff&quot; style=&quot;font-size: 24px;&quot;&gt;Input Examples:&lt;/font&gt;&lt;/h1&gt;" style="text;html=1;strokeColor=none;fillColor=none;align=center;verticalAlign=middle;whiteSpace=wrap;rounded=0;" vertex="1" parent="1">
                    <mxGeometry x="190" y="250" width="470" height="30" as="geometry"/>
                </mxCell>
                <mxCell id="7" value="&lt;h1&gt;&lt;font color=&quot;#ffffff&quot; style=&quot;font-size: 24px;&quot;&gt;C#&lt;/font&gt;&lt;/h1&gt;" style="text;html=1;strokeColor=none;fillColor=none;align=center;verticalAlign=middle;whiteSpace=wrap;rounded=0;" vertex="1" parent="1">
                    <mxGeometry x="400" y="290" width="50" height="30" as="geometry"/>
                </mxCell>
                <mxCell id="8" value="&lt;h1&gt;&lt;font color=&quot;#ffffff&quot;&gt;Video Editing&lt;/font&gt;&lt;/h1&gt;" style="text;html=1;strokeColor=none;fillColor=none;align=center;verticalAlign=middle;whiteSpace=wrap;rounded=0;" vertex="1" parent="1">
                    <mxGeometry x="345" y="330" width="160" height="30" as="geometry"/>
                </mxCell>
                <mxCell id="9" value="&lt;h1&gt;&lt;font color=&quot;#ffffff&quot;&gt;Cooking&lt;/font&gt;&lt;/h1&gt;" style="text;html=1;strokeColor=none;fillColor=none;align=center;verticalAlign=middle;whiteSpace=wrap;rounded=0;" vertex="1" parent="1">
                    <mxGeometry x="345" y="380" width="160" height="30" as="geometry"/>
                </mxCell>
                <mxCell id="10" value="Only enter the name of the activity that you want to learn" style="html=1;shadow=0;dashed=0;shape=mxgraph.bootstrap.rrect;rSize=5;strokeColor=#CED4DA;strokeWidth=1;fillColor=#E9ECEF;fontColor=#505050;whiteSpace=wrap;align=left;verticalAlign=middle;spacingLeft=10;fontSize=14;" vertex="1" parent="1">
                    <mxGeometry x="170" y="440" width="580" height="40" as="geometry"/>
                </mxCell>
                <mxCell id="11" value="" style="html=1;verticalLabelPosition=bottom;labelBackgroundColor=#ffffff;verticalAlign=top;shadow=0;dashed=0;strokeWidth=1;shape=mxgraph.ios7ui.slider;barPos=20;strokeColor=#0080f0;strokeColor2=#a0a0a0;fontSize=24;fontColor=#FFFFFF;fillColor=#FFFFFF;" vertex="1" parent="1">
                    <mxGeometry x="270" y="510" width="350" height="50" as="geometry"/>
                </mxCell>
                <mxCell id="12" value="&lt;font style=&quot;font-size: 20px;&quot;&gt;&lt;font color=&quot;#ffffff&quot;&gt;How familiar are you already with it?&lt;/font&gt;&lt;br&gt;&lt;/font&gt;" style="text;html=1;strokeColor=none;fillColor=none;align=center;verticalAlign=middle;whiteSpace=wrap;rounded=0;fontSize=48;fontColor=#000000;" vertex="1" parent="1">
                    <mxGeometry x="260" y="485" width="350" height="15" as="geometry"/>
                </mxCell>
                <mxCell id="14" value="&lt;span style=&quot;font-size: 10px;&quot;&gt;Medium&lt;br&gt;You can start something with it&lt;br&gt;&lt;/span&gt;" style="text;html=1;strokeColor=none;fillColor=none;align=center;verticalAlign=middle;whiteSpace=wrap;rounded=0;fontSize=24;fontColor=#FFFFFF;" vertex="1" parent="1">
                    <mxGeometry x="353" y="540" width="145" height="55" as="geometry"/>
                </mxCell>
                <mxCell id="15" value="Beginner (Noop)" style="text;html=1;strokeColor=none;fillColor=none;align=center;verticalAlign=middle;whiteSpace=wrap;rounded=0;fontSize=10;fontColor=#FFFFFF;" vertex="1" parent="1">
                    <mxGeometry x="220" y="540" width="85" height="30" as="geometry"/>
                </mxCell>
                <mxCell id="16" value="&lt;span style=&quot;font-size: 10px;&quot;&gt;Pro&lt;br&gt;You could build everything with it but you want to learn even further&lt;br&gt;&lt;/span&gt;" style="text;html=1;strokeColor=none;fillColor=none;align=center;verticalAlign=middle;whiteSpace=wrap;rounded=0;fontSize=24;fontColor=#FFFFFF;" vertex="1" parent="1">
                    <mxGeometry x="490" y="552.5" width="250" height="30" as="geometry"/>
                </mxCell>
                <mxCell id="18" value="&lt;font style=&quot;font-size: 22px;&quot;&gt;Im google storage werden das ziel und die prozentuale gewichtung gewichtet. Bei der Überprüfung unter den geschauten videos wird nur geschaut ob die Tätigkeit vorkommt.&lt;/font&gt;" style="text;html=1;strokeColor=none;fillColor=none;align=center;verticalAlign=middle;whiteSpace=wrap;rounded=0;fontSize=10;fontColor=#FFFFFF;" vertex="1" parent="1">
                    <mxGeometry x="890" y="290" width="410" height="180" as="geometry"/>
                </mxCell>
            </root>
        </mxGraphModel>
    </diagram>
</mxfile>